<svg width="72" height="72" viewBox="0 0 72 72" fill="none" xmlns="http://www.w3.org/2000/svg">
	<rect width="72" height="72" rx="20" fill="#08090B"/>
	<path d="M23 16H39.5C48.1 16 53.5 20.7 53.5 28.1C53.5 32 51.7 35.2 48.5 37C52.4 38.8 54.8 42.3 54.8 46.9C54.8 54.7 49.1 59 40.1 59H23V16ZM38.6 33.3C42.3 33.3 44.7 31.4 44.7 28.4C44.7 25.3 42.4 23.5 38.7 23.5H31.8V33.3H38.6ZM39.7 51.5C43.6 51.5 45.9 49.5 45.9 46.2C45.9 42.9 43.5 40.9 39.6 40.9H31.8V51.5H39.7Z" fill="#F8FAFC"/>
	<path d="M18 17L30 9H54L42 17H18Z" fill="#38BDF8"/>
	<path d="M18 55H42L54 63H30L18 55Z" fill="#2563EB"/>
</svg>
