<svg width="512" height="512" viewBox="0 0 512 512" fill="none" xmlns="http://www.w3.org/2000/svg">
	<rect width="512" height="512" rx="112" fill="#020305"/>
	<rect x="70" y="70" width="372" height="372" rx="78" fill="#04070B" stroke="#38BDF8" stroke-width="10"/>
	<rect x="70" y="70" width="372" height="372" rx="78" stroke="#2563EB" stroke-width="3"/>
	<g filter="url(#blueGlow)">
		<rect x="70" y="70" width="372" height="372" rx="78" stroke="#38BDF8" stroke-width="6"/>
		<path d="M155 393L214 301L262 273L202 365L155 393Z" fill="#67E8F9"/>
		<path d="M155 393L222 310L285 262L214 353L155 393Z" fill="#0EA5E9"/>
	</g>
	<path d="M178 146H294C343 146 376 174 376 216C376 239 365 257 346 268C371 279 386 301 386 330C386 376 352 402 299 402H199L248 357H297C319 357 333 346 333 327C333 309 319 298 295 298H240L286 253H295C314 253 326 242 326 225C326 207 313 197 291 197H230V294L178 350V146Z" fill="url(#whiteFace)"/>
	<path d="M178 350V294L231 242V304L178 350Z" fill="#F8FAFC"/>
	<defs>
		<filter id="blueGlow" x="25" y="25" width="462" height="462" filterUnits="userSpaceOnUse" color-interpolation-filters="sRGB">
			<feFlood flood-opacity="0" result="BackgroundImageFix"/>
			<feColorMatrix in="SourceAlpha" type="matrix" values="0 0 0 0 0 0 0 0 0 0 0 0 0 0 0 0 0 0 127 0" result="hardAlpha"/>
			<feOffset/>
			<feGaussianBlur stdDeviation="13"/>
			<feComposite in2="hardAlpha" operator="out"/>
			<feColorMatrix type="matrix" values="0 0 0 0 0.0588 0 0 0 0 0.6078 0 0 0 0 1 0 0 0 0.95 0"/>
			<feBlend mode="normal" in2="BackgroundImageFix" result="effect1_dropShadow"/>
			<feBlend mode="normal" in="SourceGraphic" in2="effect1_dropShadow" result="shape"/>
		</filter>
		<linearGradient id="whiteFace" x1="233" y1="146" x2="344" y2="403" gradientUnits="userSpaceOnUse">
			<stop stop-color="#FFFFFF"/>
			<stop offset="0.48" stop-color="#F8FAFC"/>
			<stop offset="1" stop-color="#DDE3EA"/>
		</linearGradient>
	</defs>
</svg>
