<svg width="64" height="64" viewBox="0 0 512 512" fill="none" xmlns="http://www.w3.org/2000/svg">
	<rect width="512" height="512" rx="112" fill="#020305"/>
	<rect x="70" y="70" width="372" height="372" rx="78" fill="#04070B" stroke="#38BDF8" stroke-width="12"/>
	<path d="M178 146H294C343 146 376 174 376 216C376 239 365 257 346 268C371 279 386 301 386 330C386 376 352 402 299 402H199L248 357H297C319 357 333 346 333 327C333 309 319 298 295 298H240L286 253H295C314 253 326 242 326 225C326 207 313 197 291 197H230V294L178 350V146Z" fill="#F8FAFC"/>
	<path d="M155 393L222 310L285 262L214 353L155 393Z" fill="#0EA5E9"/>
</svg>
